<?xml version="1.0" encoding="UTF-8"?>
<svg width="29px" height="36px" viewBox="0 0 347 427" version="1.1" xmlns="http://www.w3.org/2000/svg" xmlns:xlink="http://www.w3.org/1999/xlink">
  <g id="delete">
      <path d="M233.398438,155.703125 C227.875,155.703125 223.398438,160.179688 223.398438,165.703125 L223.398438,354.703125 C223.398438,360.222656 227.875,364.703125 233.398438,364.703125 C238.921875,364.703125 243.398438,360.222656 243.398438,354.703125 L243.398438,165.703125 C243.398438,160.179688 238.921875,155.703125 233.398438,155.703125 Z" id="Path"></path>
      <path d="M115.398438,155.703125 C109.875,155.703125 105.398438,160.179688 105.398438,165.703125 L105.398438,354.703125 C105.398438,360.222656 109.875,364.703125 115.398438,364.703125 C120.921875,364.703125 125.398438,360.222656 125.398438,354.703125 L125.398438,165.703125 C125.398438,160.179688 120.921875,155.703125 115.398438,155.703125 Z" id="Path"></path>
      <path d="M29.398438,128.121094 L29.398438,374.5 C29.398438,389.0625 34.738281,402.738281 44.066406,412.550781 C53.351562,422.390625 66.273438,427.976562 79.796875,428 L269,428 C282.527344,427.976562 295.449219,422.390625 304.730469,412.550781 C314.058594,402.738281 319.398438,389.0625 319.398438,374.5 L319.398438,128.121094 C337.941406,123.199219 349.957031,105.285156 347.476562,86.257812 C344.992188,67.234375 328.785156,53.003906 309.597656,53 L258.398438,53 L258.398438,40.5 C258.457031,29.988281 254.300781,19.894531 246.859375,12.46875 C239.417969,5.046875 229.308594,0.9140625 218.796875,0.998686082 L130,0.998686082 C119.488281,0.9140625 109.378906,5.046875 101.9375,12.46875 C94.496094,19.894531 90.339844,29.988281 90.398438,40.5 L90.398438,53 L39.199219,53 C20.011719,53.003906 3.804688,67.234375 1.320312,86.257812 C-1.160156,105.285156 10.855469,123.199219 29.398438,128.121094 Z M269,408 L79.796875,408 C62.699219,408 49.398438,393.3125 49.398438,374.5 L49.398438,129 L299.398438,129 L299.398438,374.5 C299.398438,393.3125 286.097656,408 269,408 Z M110.398438,40.5 C110.332031,35.292969 112.378906,30.28125 116.074219,26.605469 C119.765625,22.929688 124.789062,20.910156 130,21 L218.796875,21 C224.007812,20.910156 229.03125,22.929688 232.722656,26.605469 C236.417969,30.277344 238.464844,35.292969 238.398438,40.5 L238.398438,53 L110.398438,53 L110.398438,40.5 Z M39.199219,73 L309.597656,73 C319.539062,73 327.597656,81.058594 327.597656,91 C327.597656,100.941406 319.539062,109 309.597656,109 L39.199219,109 C29.257812,109 21.199219,100.941406 21.199219,91 C21.199219,81.058594 29.257812,73 39.199219,73 Z" id="Shape"></path>
      <path d="M174.398438,155.703125 C168.875,155.703125 164.398438,160.179688 164.398438,165.703125 L164.398438,354.703125 C164.398438,360.222656 168.875,364.703125 174.398438,364.703125 C179.921875,364.703125 184.398438,360.222656 184.398438,354.703125 L184.398438,165.703125 C184.398438,160.179688 179.921875,155.703125 174.398438,155.703125 Z" id="Path"></path>
  </g>
</svg>