<?xml version="1.0" encoding="UTF-8"?>
<svg width="8px" height="36px" viewBox="0 0 8 36" version="1.1" xmlns="http://www.w3.org/2000/svg" xmlns:xlink="http://www.w3.org/1999/xlink">
  <g id="important">
      <path d="M4,28 C5.23912174,28 6.27057457,26.968051 6.37493675,25.6258344 L7.98593697,4.7117403 C8.07971743,3.49877791 7.70135493,2.29968986 6.94390242,1.40411198 C6.18737582,0.50968431 5.11901926,0 4,0 C2.8809862,0 1.81262963,0.50968431 1.0560369,1.40411198 C0.298452123,2.29968986 -0.0797119747,3.49877791 0.0140684888,4.7117403 L1.62506871,25.6258344 C1.72943089,26.968051 2.76088371,28 4,28 Z" id="Path"></path>
      <path d="M4,30 C2.34287752,30 1,31.3428353 1,33.0000764 C1,34.6571647 2.34287752,36 4,36 C5.65712248,36 7,34.6571647 7,33.0000764 C7,31.3428353 5.65712248,30 4,30 Z" id="Path"></path>
  </g>
</svg>